<svg width="44" height="40" viewBox="0 0 44 40" fill="none" xmlns="http://www.w3.org/2000/svg">
<rect width="44" height="40" fill="#E5E5E5"/>
<g id="About Us" clip-path="url(#clip0_0_1)">
<rect width="1920" height="7420" transform="translate(-443 -729)" fill="white"/>
<g id="Statistics">
<g id="item" clip-path="url(#clip1_0_1)">
<g id="ic-like">
<g id="Group">
<g id="Group_2">
<path id="Vector" d="M42.0166 21.7188C42.6859 20.9716 43.0938 19.9853 43.0938 18.9062C43.0938 16.5803 41.2009 14.6875 38.875 14.6875H30.6869C31.4978 12.2266 31.8438 8.96125 31.8438 7.56156V6.15625C31.8438 3.055 29.32 0.53125 26.2188 0.53125H24.8125C24.1675 0.53125 23.605 0.97 23.4484 1.59625L22.6825 4.66094C21.6091 8.95281 18.2013 13.6881 14.6744 14.5487C14.0566 12.985 12.5312 11.875 10.75 11.875H2.3125C1.53625 11.875 0.90625 12.505 0.90625 13.2812V38.5938C0.90625 39.37 1.53625 40 2.3125 40H10.75C12.4272 40 13.8784 39.0166 14.5581 37.5953L19.39 39.2059C20.9697 39.7328 22.6159 40 24.2819 40H36.0625C38.3884 40 40.2812 38.1072 40.2812 35.7812C40.2812 35.2328 40.1763 34.7078 39.985 34.2269C41.7738 33.7384 43.0938 32.0987 43.0938 30.1562C43.0938 29.0772 42.6859 28.0909 42.0166 27.3438C42.6859 26.5966 43.0938 25.6103 43.0938 24.5312C43.0938 23.4522 42.6859 22.4659 42.0166 21.7188ZM12.1562 35.7812C12.1562 36.5566 11.5253 37.1875 10.75 37.1875H3.71875V14.6875H10.75C11.5253 14.6875 12.1562 15.3184 12.1562 16.0938V35.7812ZM36.0625 23.125H38.875C39.6503 23.125 40.2812 23.7559 40.2812 24.5312C40.2812 25.3066 39.6503 25.9375 38.875 25.9375H36.0625C35.2863 25.9375 34.6562 26.5675 34.6562 27.3438C34.6562 28.12 35.2863 28.75 36.0625 28.75H38.875C39.6503 28.75 40.2812 29.3809 40.2812 30.1562C40.2812 30.9316 39.6503 31.5625 38.875 31.5625H36.0625C35.2863 31.5625 34.6562 32.1925 34.6562 32.9688C34.6562 33.745 35.2863 34.375 36.0625 34.375C36.8378 34.375 37.4688 35.0059 37.4688 35.7812C37.4688 36.5566 36.8378 37.1875 36.0625 37.1875H24.2819C22.9187 37.1875 21.5716 36.9691 20.2787 36.5378L14.9688 34.7678V17.3669C17.1747 16.9478 19.3337 15.5509 21.2828 13.2644C23.1859 11.0313 24.7291 8.07063 25.4106 5.34344L25.9103 3.34375H26.2188C27.7694 3.34375 29.0312 4.60563 29.0312 6.15625V7.56156C29.0312 9.44969 28.4406 13.0712 27.685 14.6875H24.8125C24.0362 14.6875 23.4062 15.3175 23.4062 16.0938C23.4062 16.87 24.0362 17.5 24.8125 17.5H38.875C39.6503 17.5 40.2812 18.1309 40.2812 18.9062C40.2812 19.6816 39.6503 20.3125 38.875 20.3125H36.0625C35.2863 20.3125 34.6562 20.9425 34.6562 21.7188C34.6562 22.495 35.2863 23.125 36.0625 23.125Z" fill="#9A9CA5"/>
</g>
</g>
<g id="Group_3">
<g id="Group_4">
<path id="Vector_2" d="M7.9375 34.375C8.71415 34.375 9.34375 33.7454 9.34375 32.9688C9.34375 32.1921 8.71415 31.5625 7.9375 31.5625C7.16085 31.5625 6.53125 32.1921 6.53125 32.9688C6.53125 33.7454 7.16085 34.375 7.9375 34.375Z" fill="#9A9CA5"/>
</g>
</g>
<g id="Group_5">
<g id="Group_6">
<path id="Vector_3" d="M21.6589 -1.79861L19.6701 -3.78733C19.1211 -4.33652 18.2306 -4.33652 17.6814 -3.78733C17.1322 -3.23814 17.1322 -2.3478 17.6814 -1.79861L19.6701 0.19011C20.2192 0.739203 21.1098 0.739297 21.6589 0.19011C22.2081 -0.359078 22.2081 -1.24942 21.6589 -1.79861Z" fill="#9A9CA5"/>
</g>
</g>
<g id="Group_7">
<g id="Group_8">
<path id="Vector_4" d="M37.569 -3.78733C37.0199 -4.33652 36.1295 -4.33652 35.5803 -3.78733L33.5916 -1.7987C33.0424 -1.24951 33.0424 -0.359169 33.5916 0.190019C34.1407 0.739207 35.0311 0.7393 35.5803 0.190113L37.569 -1.79861C38.1182 -2.3478 38.1182 -3.23814 37.569 -3.78733Z" fill="#9A9CA5"/>
</g>
</g>
</g>
</g>
</g>
</g>
<defs>
<clipPath id="clip0_0_1">
<rect width="1920" height="7420" fill="white" transform="translate(-443 -729)"/>
</clipPath>
<clipPath id="clip1_0_1">
<rect width="240" height="178" fill="white" transform="translate(-98 -8)"/>
</clipPath>
</defs>
</svg>
