<svg width="148" height="148" viewBox="0 0 148 148" fill="none" xmlns="http://www.w3.org/2000/svg">
<rect width="148" height="148" fill="#E5E5E5"/>
<g id="Homepage v.2" clip-path="url(#clip0_0_1)">
<rect width="1920" height="8460" transform="translate(-592 -5787)" fill="white"/>
<g id="Figures">
<g id="figure">
<g id="circle-progress" clip-path="url(#clip1_0_1)">
<circle id="ellipse" opacity="0.3" cx="74" cy="74" r="71" stroke="#F89828" stroke-width="6"/>
<path id="ellipse_2" d="M74 142C111.555 142 142 111.555 142 74C142 36.4446 111.555 6 74 6V0C114.869 0 148 33.1309 148 74C148 114.869 114.869 148 74 148C33.1309 148 0 114.869 0 74C0 51.3485 10.1774 31.0741 26.209 17.5L30 22.1523C15.3167 34.6254 6 53.2247 6 74C6 111.555 36.4446 142 74 142Z" fill="#F89828"/>
</g>
</g>
</g>
</g>
<defs>
<clipPath id="clip0_0_1">
<rect width="1920" height="8460" fill="white" transform="translate(-592 -5787)"/>
</clipPath>
<clipPath id="clip1_0_1">
<rect width="148" height="148" fill="white"/>
</clipPath>
</defs>
</svg>
